# xmcd
#
# Track frame offsets: 
#        150
#        13683
#        29783
#        49671
#
# Disc length: 875 seconds
#
# Revision: 0
# Processed by: cddbd v1.5.2PL0 Copyright (c) Steve Scherf et al.
# Submitted via: ExactAudioCopy v0.99pb5
#
DISCID=2e036904
DTITLE=strongT - Strong Medicine
DYEAR=2009
DGENRE=Blues
TTITLE0=We'll be Together
TTITLE1=Strong Medicine
TTITLE2=Use me
TTITLE3=Sweet 16
EXTD=
EXTT0=
EXTT1=
EXTT2=
EXTT3=
PLAYORDER=
